<?xml version="1.0" standalone="no"?>
<!DOCTYPE svg PUBLIC "-//W3C//DTD SVG 1.1//EN"  "http://www.w3.org/Graphics/SVG/1.1/DTD/svg11.dtd">

<svg
   xmlns="http://www.w3.org/2000/svg"
   version="1.0"
   width="128"
   height="128"
   id="icon-reel-svg">
	<![CDATA[
	<!--
		Icon SWFPut WordPress plugins display.
	-->
	]]>
	<script type="text/javascript">
	<![CDATA[
	]]>
	</script>
	<style type="text/css">
	<![CDATA[
		#rect-reel-1 {
			fill: #dce0e0;
		}
		#path-reel-1 {
			fill: #003333;
		}
	]]>
	</style>
	<defs id="icon-reel-defs" >
		<filter id="blur_dis" filterUnits="userSpaceOnUse" x="0" y="0">
			<desc> Indicates button disabled by blurring icon. </desc>
			<feGaussianBlur stdDeviation="1.25" in="SourceGraphic" result="blur"/>
		</filter>
		<radialGradient id="progloadgr" cx="50%" cy="50%" fx="50%" fy="50%" gradientUnits="userSpaceOnUse">
			<stop offset="0%" style="stop-color:rgb(15,10,45);stop-opacity:0.47"/>
			<stop offset="25%" style="stop-color:rgb(215,210,245);stop-opacity:0.47"/>
			<stop offset="75%" style="stop-color:rgb(215,210,245);stop-opacity:0.47"/>
			<stop offset="100%" style="stop-color:rgb(15,10,45);stop-opacity:0.47"/>
			<animate attributeName="cx" values="50%; 90%; 50%; 10%; 50%" dur="16s" repeatCount="indefinite"/>
		</radialGradient>
	</defs>
  <g
     id="layer1">
    <g
       id="group-reel-1"
       class="reel-1" >
      <rect x="0" y="0" width="128" height="128" id="rect-reel-1" />
      <path
         d="
		M 100.01545319,96.28404160 C 102.34912333,94.61705795 108.18329866,85.44891530 109.01687964,81.94841010
		C 96.93164933,72.19684993 96.93164933,72.19684993 84.84641902,62.44528975
		C 84.84641902,70.94674591 80.17890045,78.44790490 72.84445765,81.94841010
		C 86.42995542,89.11631501 86.42995542,89.11631501 100.01545319,96.28404160 Z
		M 16.50213967,79.78145617 C 18.33576820,84.94894502 22.33640416,91.78323923 25.17022288,94.61705795
		C 39.00570579,88.28273403 39.00570579,88.28273403 52.84118871,81.94841010
		C 45.17331352,77.44778603 41.67280832,70.94674591 41.50609212,61.44517088
		C 29.00416048,70.61331352 29.00416048,70.61331352 16.50213967,79.78145617 Z
		M 70.67732541,14.10436850 C 68.17693908,13.27078752 66.51013373,13.10407132 63.00945022,13.10407132
		C 59.34222883,13.10407132 57.00855869,13.43750371 54.67488856,14.10436850
		C 52.92463596,29.52338782 52.92463596,29.52338782 51.17438336,44.94258544
		C 55.34157504,42.27548291 59.00897474,41.27536404 63.50959881,41.27536404
		C 68.34365527,41.27536404 71.67762259,42.27548291 75.34484398,44.94258544
		C 73.01117385,29.52338782 73.01117385,29.52338782 70.67732541,14.10436850 Z
		M 63.50959881,46.27613670 C 54.00802377,46.27613670 46.34014859,53.77729569 46.34014859,62.94543834
		C 46.34014859,72.28029718 53.84148588,79.94817236 63.17616642,79.94817236
		C 72.51102526,79.94817236 80.01218425,72.44683507 80.01218425,63.11215453
		C 80.01218425,53.94401189 72.51102526,46.27613670 63.50959881,46.27613670 Z
		M 64.00974740,2.93580981 C 30.17099554,2.93580981 3.00000000,29.44011887 3.00000000,62.44528975
		C 3.00000000,96.11732541 29.67084695,122.95488856 63.00945022,122.95488856
		C 96.18151560,122.95488856 123.01907875,96.11732541 123.01907875,62.94543834
		C 123.01907875,30.27352155 96.18151560,2.93580981 64.00974740,2.93580981 Z
		M 63.84303120,7.26989599 C 76.67839525,7.26989599 90.51387816,12.77081724 100.18216939,21.60552749
		C 112.35066865,32.60719168 118.68499257,46.94282318 118.68499257,62.77872214
		C 118.68499257,93.45022288 93.68112927,118.45426449 63.00945022,118.45426449
		C 32.00451709,118.45426449 7.33401486,93.61693908 7.33401486,62.44528975
		C 7.33401486,49.10995542 12.50150371,35.77444279 21.66971768,25.77289747
		C 32.83809807,13.43750371 46.84029718,7.26989599 63.84303120,7.26989599 Z
	 "
         id="path-reel-1" />
    </g>
  </g>
</svg>
